<svg xmlns="http://www.w3.org/2000/svg" viewBox="0 0 24 24" fill="white">
  <path d="M15.07 2H8.93C3.33 2 2 3.33 2 8.93v6.14C2 20.67 3.33 22 8.93 22h6.14c5.6 0 6.93-1.33 6.93-6.93V8.93C22 3.33 20.67 2 15.07 2zm3.08 14.27h-1.46c-.55 0-.72-.44-1.71-1.42-1.32-1.23-1.89-1.39-2.21-1.39-.45 0-.58.13-.58.75v1.29c0 .41-.13.64-1.2.64-1.77 0-3.37-.96-4.61-2.75-1.87-2.66-2.39-4.65-2.39-5.06 0-.22.08-.42.75-.42h1.45c.44 0 .61.2.78.67.85 2.46 2.27 4.61 2.85 4.61.22 0 .32-.1.32-.66v-2.58c-.07-1.19-.69-1.29-.69-1.71 0-.21.18-.42.47-.42h2.29c.31 0 .42.2.42.65v3.48c0 .37.16.5.26.5.22 0 .4-.13.81-.54 1.26-1.41 2.16-3.57 2.16-3.57.12-.25.31-.48.74-.48h1.45c.44 0 .54.23.44.54-.18.85-1.94 3.32-1.94 3.32-.16.26-.22.37 0 .66.15.21.66.65 1 1.04.62.71 1.1 1.31 1.23 1.71.11.41-.09.63-.51.63z"/>
</svg>